<?xml version="1.0" standalone="no"?>
<!DOCTYPE svg PUBLIC "-//W3C//DTD SVG 20010904//EN"
 "http://www.w3.org/TR/2001/REC-SVG-20010904/DTD/svg10.dtd">
<svg version="1.0" xmlns="http://www.w3.org/2000/svg"
 width="10100.000000pt" height="3416.000000pt" viewBox="0 0 10100.000000 3416.000000"
 preserveAspectRatio="xMidYMid meet">

<g transform="translate(0.000000,3416.000000) scale(0.100000,-0.100000)"
fill="#000000" stroke="none">
<path d="M12141 33928 c-5 -13 -23 -108 -40 -213 -18 -104 -146 -865 -286
-1690 -379 -2236 -424 -2506 -451 -2670 -14 -82 -29 -159 -33 -170 -5 -12 -39
-34 -87 -55 -44 -18 -82 -39 -86 -44 -5 -7 -8 -7 -8 -1 0 6 -3 6 -8 -1 -4 -5
-30 -20 -58 -31 -27 -12 -78 -38 -113 -57 -35 -20 -65 -36 -67 -36 -6 0 -450
-222 -629 -315 -326 -168 -672 -356 -955 -518 -96 -55 -193 -109 -215 -121
-22 -12 -42 -24 -45 -27 -3 -3 -21 -14 -40 -24 -60 -30 -382 -221 -540 -320
-19 -12 -78 -48 -130 -80 -212 -130 -275 -170 -282 -180 -4 -5 -8 -6 -8 -2 0
4 -6 3 -12 -3 -7 -6 -42 -30 -78 -52 -187 -119 -741 -491 -867 -582 -13 -9
-25 -16 -28 -16 -3 0 -12 -5 -19 -12 -18 -18 -48 -40 -231 -170 -88 -63 -243
-177 -344 -253 -101 -77 -205 -156 -231 -175 -131 -98 -150 -112 -150 -119 0
-4 -13 -15 -29 -24 -17 -10 -103 -76 -193 -148 -178 -142 -175 -140 -264 -215
-33 -28 -119 -100 -190 -159 -163 -136 -515 -448 -654 -580 -36 -34 -103 -97
-150 -140 -262 -242 -869 -868 -1145 -1180 -152 -173 -463 -544 -561 -670 -29
-38 -74 -95 -99 -125 -24 -30 -53 -66 -62 -80 -10 -14 -38 -51 -63 -83 -25
-33 -54 -72 -65 -87 -11 -15 -59 -81 -106 -147 -235 -324 -524 -755 -624 -931
-5 -10 -29 -48 -53 -85 -23 -37 -51 -82 -61 -100 -10 -17 -52 -90 -93 -162
-269 -468 -554 -1056 -739 -1525 -27 -69 -54 -134 -59 -145 -5 -11 -25 -69
-45 -130 -20 -60 -41 -115 -47 -122 -6 -7 -7 -13 -3 -13 4 0 2 -7 -5 -15 -7
-8 -9 -15 -5 -15 4 0 3 -6 -3 -12 -13 -17 -109 -323 -166 -529 -59 -218 -91
-356 -133 -579 l-34 -185 -19 -745 c-10 -410 -19 -846 -20 -970 -1 -124 -3
-261 -6 -305 -11 -221 -14 -339 -35 -1316 -12 -525 -12 -571 4 -640 10 -41 20
-85 23 -98 3 -14 7 -27 9 -31 2 -4 7 -29 10 -56 8 -56 151 -630 162 -647 4 -7
9 -21 11 -32 8 -56 189 -624 204 -643 6 -6 7 -12 2 -12 -5 0 -4 -4 2 -8 5 -4
18 -34 28 -67 25 -80 110 -315 142 -390 14 -33 66 -157 115 -275 139 -330 345
-764 499 -1050 120 -221 202 -369 240 -430 15 -25 60 -101 100 -170 41 -69
107 -177 148 -240 112 -171 294 -444 357 -535 86 -124 122 -175 160 -231 10
-16 40 -54 65 -86 25 -31 65 -84 90 -117 25 -34 59 -79 75 -100 17 -21 50 -64
75 -96 146 -189 419 -519 511 -620 36 -38 106 -117 155 -175 273 -315 847
-891 1237 -1241 283 -253 327 -293 367 -325 19 -16 84 -71 145 -123 60 -51
119 -101 130 -110 11 -9 58 -47 105 -86 98 -81 88 -73 207 -167 50 -40 133
-104 183 -143 50 -38 100 -77 111 -85 56 -44 391 -293 479 -356 208 -150 455
-322 566 -394 30 -19 112 -73 184 -120 200 -131 224 -146 447 -284 114 -71
220 -137 235 -147 15 -10 44 -28 65 -40 21 -12 85 -50 143 -84 508 -302 954
-544 1586 -857 387 -192 414 -205 559 -269 50 -21 98 -44 109 -50 10 -6 53
-26 95 -44 42 -18 119 -52 171 -75 144 -64 346 -148 433 -181 44 -16 92 -36
108 -44 16 -9 61 -27 101 -41 40 -15 78 -30 83 -34 6 -4 35 -15 65 -25 30 -10
73 -26 95 -36 83 -38 495 -178 495 -168 0 4 -4 9 -9 11 -5 2 -128 118 -273
258 -145 140 -317 307 -383 370 -66 63 -169 163 -230 222 -60 59 -144 139
-185 178 -220 211 -637 613 -810 780 -37 36 -112 108 -166 160 -55 52 -160
154 -234 225 -75 72 -241 231 -370 355 -128 124 -250 241 -270 260 -692 669
-767 741 -790 757 -26 18 -27 37 0 23 32 -17 269 -97 370 -125 52 -14 102 -30
110 -34 8 -4 96 -27 195 -50 99 -23 187 -45 195 -50 8 -4 85 -22 170 -40 85
-18 164 -37 175 -42 11 -4 88 -22 170 -39 83 -17 159 -33 170 -36 11 -3 99
-21 195 -40 96 -19 184 -37 195 -39 11 -2 117 -23 235 -45 118 -22 224 -43
235 -45 11 -2 34 -6 50 -9 17 -3 91 -17 165 -31 209 -39 508 -92 810 -141 151
-25 286 -48 300 -50 319 -53 267 -50 1515 -94 239 -8 671 -22 1150 -36 219 -6
943 -31 1280 -44 127 -5 403 -14 615 -19 212 -6 455 -13 540 -16 85 -3 313
-10 505 -15 193 -6 382 -13 420 -15 120 -7 944 -34 1870 -61 110 -3 308 -10
440 -14 132 -5 400 -14 595 -20 328 -10 753 -40 1040 -74 314 -38 618 -76 640
-82 14 -4 39 -8 55 -10 53 -7 464 -72 645 -103 159 -27 295 -53 660 -125 189
-38 628 -136 765 -172 33 -8 121 -31 195 -50 136 -35 142 -36 170 -46 8 -3 83
-23 165 -44 83 -21 157 -41 165 -46 8 -4 71 -23 140 -42 163 -44 361 -104 380
-115 8 -4 58 -21 110 -36 52 -15 101 -33 109 -39 8 -6 16 -10 18 -8 5 3 -3 6
213 -69 113 -39 221 -75 240 -81 19 -6 40 -14 45 -18 6 -4 60 -25 120 -45 61
-21 115 -42 121 -47 6 -4 35 -17 65 -27 30 -10 68 -25 84 -32 17 -7 32 -13 35
-14 3 0 14 -6 25 -12 11 -5 38 -16 60 -23 22 -7 63 -23 90 -36 28 -12 84 -36
125 -52 41 -17 134 -57 205 -90 72 -33 157 -72 190 -87 180 -82 362 -169 373
-178 6 -5 12 -6 12 -3 0 4 6 2 13 -4 6 -5 87 -48 178 -94 225 -113 436 -225
481 -253 21 -13 40 -23 43 -23 2 0 26 -13 52 -29 27 -15 93 -54 148 -86 304
-177 443 -264 710 -442 127 -84 255 -171 285 -193 30 -21 73 -51 94 -66 22
-14 44 -31 50 -36 6 -5 81 -61 166 -125 202 -150 459 -357 541 -433 9 -8 47
-42 84 -75 152 -132 208 -186 411 -390 116 -117 220 -227 230 -244 23 -39 34
-39 34 -1 0 17 4 30 8 30 4 0 26 -23 47 -52 l40 -52 5 1615 5 1614 25 95 c22
86 24 115 25 310 0 188 -3 229 -23 322 -47 221 -144 477 -243 646 -27 45 -49
85 -49 88 0 8 -179 270 -231 338 -24 32 -57 74 -72 94 -15 20 -51 63 -80 96
-310 356 -646 668 -1117 1037 -36 28 -72 56 -80 62 -19 15 -299 219 -354 259
-56 39 -119 82 -261 177 -66 44 -133 90 -150 101 -146 101 -353 231 -635 400
-288 172 -331 197 -362 211 -16 7 -28 16 -28 21 0 5 -4 7 -9 4 -5 -4 -11 -2
-13 2 -1 5 -28 22 -58 39 -30 16 -86 48 -125 70 -121 69 -227 128 -320 178
-49 26 -115 61 -145 78 -213 117 -940 486 -1175 597 -167 79 -311 147 -400
190 -147 71 -296 140 -300 140 -2 0 -46 19 -97 43 -51 24 -109 50 -128 57 -19
8 -37 17 -40 20 -3 4 -41 21 -85 39 -44 18 -86 38 -92 43 -7 6 -13 7 -13 2 0
-5 -4 -4 -8 1 -4 6 -25 18 -47 27 -22 9 -92 39 -155 68 -63 29 -137 61 -165
72 -27 11 -77 32 -110 47 -33 16 -103 45 -155 66 -52 20 -99 41 -105 45 -5 4
-48 22 -95 40 -47 18 -89 37 -95 41 -5 4 -44 20 -85 37 -82 33 -245 99 -385
157 -49 20 -110 45 -135 55 -25 10 -70 29 -100 43 -30 13 -89 37 -130 52 -41
15 -79 31 -85 35 -5 4 -64 26 -130 49 -65 23 -124 46 -130 50 -5 5 -53 24
-105 44 -52 19 -135 51 -185 70 -167 64 -339 129 -450 168 -60 22 -117 42
-125 46 -8 3 -17 7 -20 7 -3 1 -9 4 -15 7 -5 4 -48 19 -95 34 -47 15 -89 31
-95 35 -5 4 -55 22 -110 40 -55 18 -104 36 -110 40 -5 4 -34 15 -63 25 -57 18
-51 13 -242 225 -347 386 -669 872 -836 1260 -25 58 -51 117 -59 131 -8 14
-12 29 -8 33 3 3 2 6 -3 6 -5 0 -10 8 -11 18 -1 9 -20 62 -41 117 -83 213
-151 501 -182 780 -15 136 -12 500 5 650 14 121 61 380 72 398 2 4 7 20 9 35
16 91 107 352 194 557 23 55 48 110 56 123 8 12 11 22 7 22 -5 0 -3 4 2 8 6 4
21 30 35 57 74 149 361 607 398 635 4 3 27 32 52 65 227 306 680 760 998 1003
32 24 64 49 73 56 57 47 132 97 165 111 80 35 340 116 447 141 62 14 121 29
132 34 23 11 62 18 332 59 106 17 252 36 325 42 246 21 897 15 1108 -11 268
-32 486 -62 555 -74 265 -48 463 -87 480 -96 11 -5 74 -21 140 -35 66 -14 136
-30 155 -36 19 -6 107 -30 195 -54 180 -49 368 -105 435 -130 25 -9 80 -27
122 -40 42 -13 85 -28 95 -33 10 -5 61 -24 113 -41 52 -18 103 -37 113 -42 10
-6 60 -25 110 -43 169 -61 512 -201 532 -216 6 -5 46 -23 90 -40 44 -17 85
-35 90 -40 6 -5 33 -17 60 -28 28 -11 71 -30 97 -42 26 -11 51 -20 54 -20 4 1
10 -3 13 -8 3 -5 35 -22 71 -37 36 -15 70 -31 75 -35 6 -4 125 -66 265 -137
140 -72 273 -141 295 -153 22 -13 94 -53 160 -90 132 -73 299 -170 357 -206
21 -13 49 -24 63 -24 14 0 37 -8 51 -17 92 -60 314 58 624 332 130 115 470
457 611 614 148 165 253 283 280 315 34 42 106 125 143 166 49 54 98 112 136
160 35 44 117 143 211 255 27 33 86 105 130 160 77 96 98 123 206 262 26 35
122 128 213 209 91 81 197 176 235 212 120 112 564 555 603 601 20 25 75 88
123 140 280 315 542 677 654 906 11 22 22 42 25 45 3 3 18 32 32 65 121 274
170 478 163 675 -4 95 -32 227 -61 283 -19 36 -35 24 171 128 152 77 318 166
395 211 19 12 82 49 140 83 177 105 393 251 520 353 173 139 209 171 331 297
237 244 387 502 433 745 28 144 15 379 -26 478 -6 15 -13 36 -15 47 -13 71
-148 295 -252 419 -66 78 -198 210 -252 251 -15 11 -57 45 -95 75 -166 134
-446 306 -544 335 -38 11 -374 178 -382 190 -5 6 -8 6 -8 0 0 -6 -3 -6 -8 1
-4 5 -25 19 -47 31 -119 61 -510 281 -725 408 -30 18 -89 52 -130 75 -41 24
-78 49 -82 54 -5 7 -8 7 -8 1 0 -6 -3 -5 -8 1 -4 6 -27 22 -52 34 -25 12 -99
55 -165 95 -66 39 -199 118 -295 175 -96 57 -215 128 -265 158 -49 30 -128 77
-175 105 -47 28 -123 74 -170 103 -47 28 -126 76 -176 105 -51 30 -136 81
-190 114 -54 33 -117 71 -140 85 -278 168 -340 205 -344 211 -3 3 -25 17 -50
29 -25 13 -58 33 -75 45 -16 12 -88 57 -160 100 -71 42 -146 87 -165 100 -136
86 -558 344 -595 364 -16 9 -32 19 -35 22 -3 3 -41 27 -85 54 -44 27 -94 59
-112 70 -17 11 -58 36 -90 56 -32 19 -115 71 -185 115 -158 98 -244 150 -328
201 -82 50 -263 162 -343 212 -34 22 -88 55 -119 75 -32 20 -85 53 -117 74
l-59 37 -23 85 c-12 47 -22 91 -22 98 0 6 -5 12 -10 12 -5 0 -7 6 -4 14 3 8 3
17 -1 21 -4 4 -7 10 -8 13 0 4 -5 18 -11 32 -6 14 -25 60 -42 104 -18 43 -46
104 -63 135 -67 120 -127 218 -142 230 -9 8 -16 18 -16 23 0 8 -58 86 -80 108
-3 3 -31 37 -63 76 -99 123 -325 334 -483 451 -98 73 -127 93 -189 134 -186
124 -523 305 -690 371 -27 10 -68 28 -90 38 -64 31 -262 106 -365 139 -52 17
-108 37 -125 45 -16 8 -79 26 -140 42 -106 27 -111 30 -165 84 -31 32 -88 75
-130 98 -83 45 -294 131 -386 157 -32 10 -63 21 -69 25 -10 8 -178 57 -390
114 -66 18 -127 35 -135 39 -12 4 -194 47 -355 83 -11 2 -117 24 -235 48 -118
24 -222 46 -230 50 -8 3 -103 22 -210 41 -107 20 -204 38 -215 40 -11 3 -108
21 -215 40 -107 19 -204 37 -215 40 -18 5 -193 35 -570 96 -66 11 -208 34
-315 50 -107 17 -260 41 -340 55 -118 19 -320 50 -645 98 -16 3 -43 7 -60 11
-24 4 -249 35 -580 80 -16 2 -163 22 -325 44 -162 23 -365 50 -450 61 -85 11
-225 30 -310 41 -85 11 -222 29 -303 39 -147 18 -148 18 -190 56 -108 98 -237
188 -457 320 -126 75 -543 280 -562 276 -5 -1 -8 2 -8 7 0 5 -17 15 -37 21
-21 7 -60 24 -88 37 -27 14 -78 36 -113 49 -34 13 -77 30 -95 38 -51 24 -306
125 -372 148 -33 11 -64 24 -70 28 -5 4 -55 23 -110 41 -55 19 -103 38 -106
43 -4 5 -12 5 -18 2 -6 -4 -11 -3 -11 1 0 5 -26 17 -57 26 -31 10 -71 24 -88
32 -16 7 -75 28 -130 46 -55 17 -104 34 -110 38 -5 3 -12 6 -15 7 -3 0 -12 3
-20 7 -8 3 -67 22 -130 42 -63 19 -124 39 -135 44 -37 16 -109 39 -190 61 -44
12 -84 26 -90 30 -5 4 -55 22 -110 38 -55 17 -165 51 -245 76 -80 25 -208 64
-285 86 -77 23 -149 45 -160 50 -17 8 -160 52 -175 55 -3 0 -11 4 -18 9 -7 4
-16 5 -19 2 -3 -3 -12 -1 -20 6 -7 6 -16 8 -20 5 -3 -4 -11 -3 -17 2 -6 4 -33
14 -61 21 -27 7 -54 16 -60 19 -5 3 -14 6 -20 6 -5 1 -17 4 -25 8 -8 3 -73 22
-145 42 -71 20 -137 38 -145 40 -8 3 -76 21 -150 40 -74 20 -142 39 -150 42
-22 9 -24 9 -155 43 -66 17 -129 35 -140 40 -11 5 -83 26 -160 45 -284 73
-490 126 -505 130 -8 3 -71 19 -140 35 -69 17 -132 34 -140 37 -16 6 -32 10
-65 16 -11 3 -27 7 -35 10 -8 4 -67 18 -130 32 -63 14 -124 30 -135 35 -11 5
-81 23 -155 40 -74 16 -142 32 -150 35 -8 3 -80 20 -160 38 -80 18 -151 36
-158 41 -8 4 -15 -1 -21 -16z m97 -43 c2 -1 -4 -43 -12 -91 -8 -49 -22 -134
-30 -189 -9 -55 -17 -110 -20 -121 -2 -12 -7 -39 -11 -60 -4 -22 -9 -48 -11
-59 -28 -154 -231 -1348 -555 -3265 -71 -421 -136 -809 -146 -864 l-17 -98
-45 -22 c-25 -11 -47 -24 -49 -28 -2 -5 -8 -8 -13 -8 -15 0 -223 -103 -231
-115 -4 -5 -8 -7 -8 -4 0 6 -308 -147 -710 -351 -140 -71 -499 -262 -580 -310
-36 -20 -137 -77 -225 -125 -159 -87 -204 -112 -385 -219 -52 -31 -101 -56
-107 -56 -7 0 -13 -4 -13 -8 0 -5 -12 -14 -27 -21 -47 -21 -487 -287 -748
-451 -55 -35 -122 -76 -148 -91 -26 -16 -53 -34 -60 -39 -7 -6 -64 -43 -127
-83 -149 -95 -326 -213 -554 -371 -32 -23 -76 -52 -97 -66 -21 -14 -86 -59
-144 -100 -58 -41 -140 -99 -183 -129 -125 -88 -593 -437 -658 -490 -17 -14
-58 -46 -90 -71 -120 -92 -462 -366 -543 -434 -275 -233 -574 -493 -695 -606
-34 -31 -133 -123 -221 -204 -200 -185 -740 -729 -941 -947 -191 -208 -416
-463 -518 -588 -43 -53 -94 -114 -115 -137 -20 -23 -65 -78 -101 -124 -36 -45
-79 -99 -95 -119 -30 -35 -126 -159 -175 -225 -14 -18 -47 -63 -75 -99 -93
-123 -180 -241 -215 -293 -19 -28 -69 -100 -110 -158 -41 -59 -88 -129 -105
-155 -16 -26 -42 -63 -56 -82 -14 -19 -53 -76 -85 -128 -32 -51 -66 -104 -74
-117 -13 -21 -55 -87 -180 -289 -21 -33 -49 -80 -63 -105 -13 -25 -51 -90 -82
-145 -183 -318 -435 -814 -551 -1085 -27 -63 -53 -118 -59 -122 -5 -4 -7 -8
-2 -8 4 0 0 -14 -8 -31 -29 -56 -242 -592 -251 -631 -1 -5 -3 -10 -4 -13 -1
-3 -3 -8 -5 -12 -1 -5 -5 -16 -9 -25 -4 -9 -9 -22 -10 -30 -2 -7 -8 -25 -14
-40 -6 -15 -19 -55 -27 -89 -9 -34 -28 -92 -41 -128 -50 -133 -150 -514 -198
-756 -54 -271 -55 -290 -76 -1155 -10 -454 -21 -917 -24 -1030 -3 -113 -15
-608 -27 -1101 l-21 -897 37 -168 c97 -447 255 -1013 376 -1349 6 -16 11 -36
12 -42 0 -7 5 -13 10 -13 6 0 8 -3 5 -6 -7 -6 58 -195 102 -299 16 -38 63
-155 104 -260 242 -618 600 -1329 980 -1950 17 -28 36 -58 41 -67 62 -102 351
-537 446 -672 19 -26 41 -59 49 -71 8 -13 33 -48 56 -77 54 -69 211 -279 249
-332 17 -23 75 -97 130 -165 55 -67 111 -136 125 -154 128 -163 548 -648 634
-732 17 -17 57 -59 90 -95 75 -83 261 -273 509 -518 202 -200 275 -278 172
-182 -137 127 -673 669 -836 845 -237 257 -516 583 -706 824 -29 36 -71 89
-92 116 -22 28 -89 115 -150 195 -60 80 -119 156 -130 170 -12 14 -37 48 -56
75 -118 167 -162 230 -175 251 -8 12 -73 109 -145 215 -71 106 -134 201 -140
211 -5 9 -41 66 -79 125 -38 59 -74 117 -80 128 -6 11 -50 85 -97 165 -104
174 -114 191 -209 365 -18 33 -44 79 -57 103 -29 51 -323 638 -323 645 0 3
-20 47 -44 99 -59 126 -92 203 -176 408 -39 96 -83 202 -97 235 -32 75 -120
314 -137 375 -8 25 -23 72 -35 105 -139 377 -337 1088 -396 1420 -3 17 -9 46
-12 65 -4 19 -8 60 -8 90 0 130 18 992 40 1975 14 583 27 1164 30 1290 10 448
16 558 41 710 54 331 181 818 285 1093 22 57 37 107 34 113 -4 5 -1 9 4 9 6 0
11 10 11 23 0 13 3 27 7 31 4 3 8 12 10 19 4 22 94 261 112 302 10 22 53 122
94 221 152 365 398 873 569 1174 102 179 103 180 155 270 75 128 208 345 267
435 70 106 128 196 141 217 10 17 99 146 206 298 33 47 67 96 77 110 15 23 92
129 149 205 12 17 34 46 48 65 28 39 56 76 165 216 41 53 86 111 100 129 14
18 61 76 105 130 44 53 104 127 133 163 29 37 99 119 156 182 56 63 133 151
171 195 472 547 1279 1338 1864 1830 46 39 89 75 95 80 12 11 178 149 215 180
14 11 41 34 60 50 32 27 133 107 255 202 22 18 56 45 74 60 87 72 621 474 802
603 80 58 148 109 152 115 5 6 8 6 8 0 0 -5 7 -1 15 9 8 11 15 16 15 10 0 -5
4 -4 8 1 12 17 191 141 537 372 127 85 244 163 260 174 61 41 186 120 395 249
197 122 248 153 410 253 30 18 87 52 125 74 39 22 108 63 155 91 47 27 103 59
125 71 22 12 69 40 105 61 36 21 86 50 112 64 26 15 139 77 250 139 112 63
277 153 368 202 91 49 168 93 172 99 4 6 8 8 8 5 0 -3 73 31 163 78 89 46 308
156 487 246 179 89 328 165 331 170 3 5 9 8 13 7 3 0 62 26 131 60 69 33 129
60 134 60 12 0 7 -31 121 650 148 873 484 2863 525 3100 51 296 155 901 161
930 2 14 6 36 8 50 3 14 5 27 5 29 1 3 54 -9 59 -14z m1768 -2525 c32 -11 66
-23 74 -27 8 -3 18 -7 23 -8 4 -2 9 -4 12 -5 3 -1 8 -3 13 -5 4 -1 14 -4 22
-8 26 -11 376 -139 530 -194 103 -37 207 -77 255 -97 17 -8 68 -26 115 -41 47
-15 99 -33 115 -41 17 -7 80 -31 140 -53 61 -21 155 -56 210 -76 55 -21 150
-55 210 -76 61 -22 124 -46 140 -53 17 -7 75 -28 130 -46 55 -18 105 -36 110
-40 6 -4 28 -13 50 -20 69 -22 338 -120 380 -139 22 -11 78 -31 125 -46 47
-15 90 -31 95 -35 6 -4 48 -20 95 -35 47 -15 99 -33 115 -41 17 -7 77 -30 135
-49 58 -20 123 -44 145 -54 22 -11 63 -26 90 -34 28 -8 86 -29 129 -47 49 -20
117 -37 180 -46 56 -7 142 -20 191 -29 50 -8 187 -26 305 -40 118 -14 222 -28
230 -31 8 -3 170 -26 360 -50 190 -25 368 -49 395 -53 28 -5 53 -7 57 -5 3 2
23 -21 45 -52 21 -31 45 -66 53 -78 28 -41 155 -219 192 -270 21 -28 58 -80
83 -116 25 -36 75 -108 112 -161 38 -53 81 -116 98 -140 16 -24 33 -46 36 -49
3 -3 29 -39 58 -80 28 -41 76 -109 106 -150 29 -41 66 -93 82 -115 38 -54 126
-179 130 -184 1 -2 9 2 18 9 8 7 15 10 15 7 0 -11 163 54 269 107 131 66 265
151 416 266 150 113 251 204 446 400 l166 168 114 -24 c139 -28 447 -92 474
-99 11 -2 103 -22 205 -44 565 -122 1030 -227 1150 -261 19 -6 121 -30 225
-55 204 -47 425 -102 650 -159 143 -37 149 -39 175 -49 8 -3 76 -20 150 -38
74 -18 142 -36 150 -40 8 -5 78 -25 155 -44 77 -20 147 -39 155 -42 19 -8 12
-5 155 -48 66 -19 129 -39 140 -44 11 -6 61 -22 110 -37 50 -14 95 -30 100
-34 6 -4 55 -22 110 -40 55 -18 105 -36 110 -40 6 -5 39 -19 75 -33 96 -36
227 -103 297 -153 51 -36 68 -56 93 -107 16 -34 40 -75 52 -92 13 -16 59 -77
102 -135 152 -201 398 -491 570 -670 50 -53 121 -127 157 -165 77 -81 277
-276 395 -385 91 -85 202 -184 354 -315 30 -26 69 -60 85 -74 126 -112 699
-555 855 -662 19 -13 40 -27 45 -32 40 -32 346 -236 585 -389 311 -200 811
-491 836 -487 4 0 10 -3 13 -8 16 -24 860 -448 971 -488 7 -2 93 -41 165 -74
33 -15 87 -38 120 -51 33 -13 65 -27 71 -31 6 -5 39 -19 75 -33 35 -13 89 -35
119 -49 30 -13 82 -34 115 -46 33 -13 74 -29 90 -36 17 -8 75 -30 130 -50 55
-20 107 -38 115 -42 8 -3 17 -7 20 -8 3 -1 12 -5 20 -8 24 -10 176 -65 285
-102 55 -19 109 -39 120 -44 11 -5 65 -24 120 -41 55 -17 109 -36 120 -41 11
-5 73 -24 139 -43 65 -18 115 -36 110 -38 -14 -8 -163 -55 -234 -74 -36 -9
-69 -21 -75 -25 -5 -4 -53 -19 -105 -34 -52 -15 -108 -32 -125 -39 -17 -8 -74
-26 -126 -40 -52 -15 -103 -32 -114 -37 -11 -5 -85 -29 -165 -53 -297 -90
-386 -117 -405 -126 -11 -5 -67 -23 -125 -40 -171 -51 -166 -37 -52 -154 137
-140 189 -199 253 -286 130 -177 221 -335 275 -475 12 -33 28 -73 35 -90 7
-16 13 -32 14 -35 0 -3 11 -34 22 -70 76 -225 77 -585 4 -790 -70 -198 -137
-329 -248 -485 -154 -216 -440 -480 -733 -675 -36 -24 -83 -55 -105 -70 -58
-39 -346 -200 -445 -250 -47 -23 -86 -43 -87 -44 -1 0 -6 -39 -13 -86 -12 -96
-38 -237 -47 -260 -3 -8 -5 -19 -4 -24 1 -4 -4 -14 -10 -22 -7 -8 -9 -17 -6
-20 3 -3 1 -18 -5 -33 -5 -14 -23 -69 -39 -122 -23 -79 -98 -260 -153 -369
-145 -290 -384 -558 -656 -734 -111 -72 -329 -171 -445 -200 -5 -2 -17 -6 -25
-9 -8 -4 -48 -14 -89 -22 l-75 -15 -30 28 c-17 15 -49 41 -70 58 -22 16 -60
45 -85 64 -108 83 -325 230 -481 325 -52 33 -97 62 -98 67 -2 4 -8 6 -13 2 -5
-3 -9 -1 -9 4 0 5 -18 17 -40 27 -22 10 -40 23 -40 28 0 6 -3 8 -6 4 -3 -3
-11 -1 -18 4 -21 19 -301 169 -491 263 -197 98 -430 203 -500 226 -22 7 -42
16 -45 19 -3 4 -45 22 -95 40 -49 19 -94 37 -100 41 -5 4 -48 20 -95 35 -47
15 -89 31 -95 35 -5 4 -57 22 -115 39 -58 18 -112 35 -120 38 -21 8 -20 8
-175 53 -77 22 -162 47 -190 55 -27 8 -102 26 -165 40 -63 14 -126 30 -140 35
-31 13 -364 75 -530 101 -399 60 -542 67 -1590 75 -788 6 -1715 -4 -1995 -21
-38 -2 -137 -6 -220 -10 -465 -18 -993 -50 -1070 -65 -27 -5 -126 -16 -220
-25 -197 -19 -343 -39 -435 -60 -36 -8 -112 -23 -170 -35 -89 -17 -209 -54
-320 -98 -14 -5 -47 -26 -74 -47 -26 -20 -49 -35 -50 -33 -1 2 -12 23 -26 48
-13 25 -38 65 -56 90 -17 25 -45 70 -61 100 -17 30 -63 111 -103 180 -372 639
-797 1439 -989 1860 -19 41 -50 109 -69 150 -222 483 -399 983 -447 1260 -17
99 -22 112 -29 89 -2 -8 -18 -59 -35 -114 -17 -55 -36 -109 -41 -120 -19 -39
-103 -323 -145 -490 -24 -93 -59 -231 -79 -305 -103 -396 -196 -1009 -211
-1395 -3 -82 -8 -179 -10 -215 -7 -88 11 -469 30 -633 85 -737 331 -1331 753
-1818 91 -105 100 -112 137 -115 22 -1 121 -5 220 -8 398 -13 769 -27 1135
-43 212 -9 413 -17 448 -17 34 -1 62 -5 62 -10 0 -6 -17 -30 -38 -55 -21 -25
-118 -154 -217 -286 -228 -306 -225 -303 -255 -346 -14 -19 -59 -82 -100 -140
-144 -201 -418 -606 -526 -778 -418 -665 -644 -1121 -730 -1476 l-24 -100 0
-906 0 -905 29 -85 c144 -424 469 -1090 681 -1394 37 -53 55 -81 67 -105 7
-14 88 -130 150 -213 233 -313 539 -622 803 -811 204 -146 454 -278 635 -335
39 -12 79 -26 90 -31 90 -41 458 -94 608 -88 48 2 87 0 87 -3 0 -4 -18 -53
-39 -111 -22 -58 -49 -145 -61 -194 -11 -49 -24 -96 -27 -104 -3 -8 -7 -22 -8
-30 -2 -8 -13 -62 -26 -120 -27 -129 -33 -438 -10 -530 28 -115 85 -224 150
-287 94 -93 191 -134 363 -153 86 -10 88 -11 136 -59 104 -104 238 -90 419 43
193 142 463 465 690 825 1 2 8 -1 15 -7 7 -5 58 -24 113 -41 107 -33 190 -60
580 -195 138 -48 264 -93 280 -100 17 -8 68 -28 115 -44 165 -60 254 -93 284
-107 17 -8 76 -30 131 -50 55 -19 107 -38 115 -42 8 -3 17 -7 20 -7 3 -1 10
-5 16 -8 6 -4 47 -21 90 -37 44 -16 95 -36 114 -44 19 -9 91 -39 160 -68 69
-28 154 -64 190 -79 36 -15 121 -51 190 -80 69 -29 150 -64 180 -78 30 -14 61
-25 68 -25 6 0 12 -4 12 -9 0 -4 6 -8 14 -8 7 0 34 -11 60 -25 25 -13 48 -25
51 -25 22 -3 419 -184 688 -314 86 -42 160 -77 165 -78 4 -1 12 -5 17 -10 6
-4 98 -51 205 -104 170 -84 594 -306 721 -378 24 -14 71 -39 103 -56 33 -18
76 -42 95 -55 20 -12 68 -40 106 -62 171 -99 551 -329 570 -346 6 -4 55 -37
110 -72 55 -36 107 -69 115 -75 131 -85 535 -377 671 -485 21 -16 55 -43 76
-60 61 -48 286 -237 309 -260 11 -11 65 -61 120 -112 213 -196 415 -407 540
-562 325 -405 504 -715 632 -1096 98 -293 137 -631 103 -905 -17 -135 -22
-150 -44 -150 -9 0 -12 31 -13 108 -1 164 -45 318 -141 488 -71 126 -69 123
-100 166 -111 156 -233 285 -440 470 -49 43 -319 245 -378 282 -78 50 -284
173 -310 186 -17 8 -37 20 -45 26 -31 26 -624 314 -644 314 -3 0 -29 11 -58
24 -29 13 -84 36 -122 50 -38 15 -74 30 -80 35 -6 5 -42 19 -81 31 -38 13 -86
31 -105 40 -32 16 -515 180 -720 245 -104 33 -279 84 -465 136 -243 68 -287
79 -395 105 -112 26 -117 28 -140 37 -25 10 -200 47 -221 47 -10 0 -19 5 -19
11 0 5 -5 7 -11 3 -6 -3 -21 -2 -32 4 -12 6 -65 21 -117 32 -195 43 -570 121
-725 150 -88 16 -182 35 -210 40 -73 16 -477 88 -650 115 -82 14 -190 31 -240
40 -79 13 -202 31 -620 91 -60 9 -119 17 -130 19 -25 5 -211 29 -385 50 -74 9
-164 20 -200 25 -141 18 -492 59 -571 65 -46 4 -88 10 -93 13 -5 3 -25 7 -45
9 -20 1 -200 19 -401 39 -516 50 -630 60 -935 83 -148 12 -308 25 -355 31 -89
11 -326 27 -885 60 -181 10 -373 22 -425 26 -52 4 -120 8 -150 9 -30 1 -82 5
-115 8 -33 3 -130 9 -215 12 -85 3 -184 8 -220 10 -67 5 -443 20 -770 30 -102
4 -205 8 -230 11 -25 2 -182 9 -350 15 -264 10 -306 14 -315 28 -8 14 -43 88
-129 276 -16 33 -90 193 -166 355 -76 162 -166 356 -200 430 -76 166 -77 169
-193 415 -52 110 -102 218 -111 240 -34 80 -121 260 -129 266 -5 3 -9 10 -10
15 0 5 -9 29 -20 55 l-19 45 -82 -41 c-44 -22 -108 -56 -141 -74 -33 -19 -107
-60 -165 -91 -58 -32 -136 -76 -175 -98 -38 -23 -92 -53 -120 -68 -27 -15 -52
-29 -55 -33 -3 -3 -45 -30 -95 -60 -312 -188 -663 -433 -827 -579 -121 -107
-152 -136 -223 -212 -45 -47 -99 -110 -122 -140 -53 -70 -111 -186 -119 -239
-8 -48 -11 -49 -139 -26 -44 8 -190 33 -325 55 -135 22 -267 44 -295 49 -27 5
-131 23 -230 40 -99 17 -216 38 -260 47 -44 9 -165 31 -270 50 -194 34 -441
80 -825 154 -118 22 -224 42 -235 44 -11 1 -27 5 -35 8 -8 3 -103 22 -210 42
-107 19 -204 38 -215 41 -11 3 -78 16 -150 30 -71 14 -166 34 -210 45 -44 11
-111 25 -150 32 -38 6 -72 15 -75 18 -3 3 -14 7 -25 7 -20 1 -296 59 -620 131
-99 22 -254 57 -345 77 -91 20 -174 40 -185 45 -11 4 -92 25 -180 45 -88 20
-167 38 -175 40 -8 3 -80 20 -160 40 -80 19 -163 40 -185 46 -22 6 -105 28
-185 49 -80 21 -201 55 -270 74 -69 19 -181 51 -250 71 -69 19 -134 39 -145
44 -11 5 -69 23 -130 41 -60 17 -117 34 -125 37 -8 3 -17 7 -20 8 -3 1 -12 4
-20 8 -8 3 -64 22 -125 41 -185 59 -369 127 -616 229 -125 52 -346 167 -444
232 -155 102 -196 152 -473 587 -34 53 -62 99 -62 103 0 3 -11 21 -24 38 -23
30 -96 153 -187 315 -12 20 -29 48 -39 62 -9 14 -35 59 -57 100 -88 162 -106
196 -128 235 -102 180 -342 660 -477 955 -200 436 -210 459 -291 660 -41 102
-90 223 -110 270 -39 95 -147 386 -152 412 -2 9 -9 26 -15 37 -6 12 -8 21 -4
21 3 0 2 6 -4 13 -11 13 -83 224 -161 472 -159 506 -308 1134 -390 1645 -27
169 -68 477 -76 575 -4 44 -8 90 -10 102 -31 202 -43 1166 -17 1453 56 630
153 1117 330 1659 31 95 62 176 69 178 12 5 64 -4 543 -88 442 -78 636 -110
695 -115 50 -5 86 1 210 34 175 47 371 107 400 122 11 5 52 21 90 34 81 29
227 87 300 120 28 13 84 38 125 57 41 18 78 37 81 42 3 5 9 8 13 8 21 -3 243
125 401 232 366 248 643 567 756 872 22 60 60 197 56 202 -2 1 -46 17 -98 35
-52 18 -97 37 -101 43 -4 5 -8 6 -8 1 0 -5 -6 -4 -12 1 -7 5 -62 27 -123 48
-60 21 -114 41 -120 45 -5 4 -28 13 -50 20 -22 7 -49 18 -60 23 -11 6 -23 12
-27 13 -5 1 -9 2 -10 4 -2 1 -10 3 -18 5 -8 2 -64 23 -125 47 -60 25 -153 59
-205 78 -52 18 -99 36 -105 40 -5 4 -41 18 -80 31 -38 12 -72 25 -75 28 -3 3
-14 8 -25 9 -11 2 -24 7 -30 12 -5 4 -35 15 -65 25 -30 10 -73 26 -95 36 -22
10 -83 34 -135 53 -121 44 -353 131 -495 185 -60 23 -146 56 -190 72 -44 16
-93 36 -110 43 -16 8 -61 25 -100 39 -129 48 -227 86 -232 91 -6 5 24 40 98
117 18 19 131 139 249 265 118 126 258 274 310 329 53 55 154 163 225 240 72
76 144 153 160 170 17 17 55 58 85 91 84 92 176 192 250 269 130 137 577 613
680 726 58 63 150 161 205 219 55 58 170 179 255 270 85 91 205 217 265 280
61 64 148 158 195 210 96 106 382 411 506 540 45 47 135 143 200 213 l118 128
18 -23 c10 -13 18 -26 18 -30 0 -4 17 -33 39 -65 21 -32 65 -103 98 -158 33
-55 97 -161 143 -235 46 -74 125 -204 177 -289 51 -84 97 -159 102 -165 5 -6
19 -29 32 -51 12 -22 27 -49 33 -60 7 -11 37 -59 69 -107 31 -48 57 -91 57
-94 0 -3 9 -18 20 -34 17 -23 32 -30 107 -44 320 -61 676 -79 903 -45 234 34
282 42 339 55 113 26 313 95 420 145 57 27 107 49 112 49 5 0 9 4 9 8 0 4 20
18 44 30 103 49 303 208 417 330 60 65 239 293 239 306 0 2 20 37 44 77 l45
74 -83 205 c-96 237 -180 444 -371 910 -75 184 -175 429 -221 544 -47 114 -97
236 -113 270 l-28 62 51 18 c28 10 71 27 96 38 25 12 74 32 110 45 35 13 83
33 105 43 22 10 70 30 105 44 36 13 110 43 165 66 118 50 233 97 348 143 45
18 91 37 102 42 11 4 22 9 25 10 3 1 21 9 40 17 19 8 69 28 110 43 41 16 80
32 85 36 6 4 46 21 90 38 90 34 265 104 310 126 82 38 77 38 197 -20 62 -30
119 -59 126 -65 6 -6 12 -7 12 -3 0 4 4 4 8 -2 4 -5 153 -83 332 -173 179 -90
535 -269 793 -399 257 -130 470 -234 473 -231 3 3 -2 45 -11 94 -8 49 -35 213
-60 364 -60 373 -108 667 -226 1380 -54 333 -129 785 -165 1005 -36 220 -83
504 -105 630 -54 314 -126 742 -132 785 -3 19 -14 91 -25 160 -11 69 -30 188
-42 265 -12 77 -25 155 -30 173 -5 17 -5 32 -1 32 4 0 34 -9 67 -20z m-9326
-24715 c11 -13 10 -14 -4 -9 -9 3 -16 10 -16 15 0 13 6 11 20 -6z m50 -50 c13
-14 21 -25 18 -25 -2 0 -15 11 -28 25 -13 14 -21 25 -18 25 2 0 15 -11 28 -25z
m111 -102 c13 -16 12 -17 -3 -4 -10 7 -18 15 -18 17 0 8 8 3 21 -13z m26459
-5624 c0 -6 -4 -7 -10 -4 -5 3 -10 11 -10 16 0 6 5 7 10 4 6 -3 10 -11 10 -16z
m284 -269 c94 -93 166 -173 162 -177 -4 -4 -11 -2 -15 5 -9 14 -182 191 -299
304 -97 95 -122 125 -62 75 25 -20 121 -114 214 -207z"/>
<path d="M24450 26740 c-110 -8 -643 -44 -970 -65 -124 -8 -239 -17 -257 -19
-17 -3 -89 -7 -160 -11 -230 -10 -380 -19 -508 -30 -27 -2 -111 -7 -185 -10
-74 -4 -148 -8 -165 -10 -16 -2 -124 -9 -240 -15 -115 -6 -244 -15 -285 -20
-41 -5 -179 -15 -307 -21 -128 -7 -230 -16 -227 -21 3 -4 11 -8 19 -8 7 0 21
-7 29 -16 9 -8 16 -12 16 -7 0 4 4 4 8 -2 4 -5 48 -31 97 -56 118 -59 773
-405 805 -425 14 -8 45 -25 70 -36 25 -12 106 -53 180 -93 74 -40 198 -105
275 -145 77 -40 187 -97 245 -128 58 -30 157 -81 220 -114 63 -32 121 -63 128
-69 6 -5 12 -7 12 -3 0 3 6 2 13 -4 7 -6 59 -35 117 -65 58 -29 157 -81 220
-114 114 -60 400 -208 555 -288 213 -110 937 -475 942 -475 3 0 -10 17 -28 38
-180 205 -351 510 -458 814 -116 332 -159 680 -125 1026 13 126 45 307 64 357
12 31 13 46 3 43 -5 -1 -51 -5 -103 -8z"/>
<path d="M18015 26263 c-22 -2 -44 -8 -50 -12 -5 -5 -28 -12 -50 -16 -60 -10
-155 -59 -209 -106 -50 -44 -129 -152 -119 -163 4 -3 2 -6 -3 -6 -14 0 -19
-41 -19 -150 0 -89 2 -99 33 -156 106 -196 350 -303 601 -264 45 7 84 16 87
21 3 5 12 9 20 9 34 0 148 67 204 120 72 70 116 154 125 244 6 58 3 82 -28
191 -27 93 -211 240 -327 261 -19 4 -40 10 -45 15 -13 10 -166 18 -220 12z"/>
<path d="M9960 20934 c-149 -21 -269 -73 -339 -150 -126 -137 -121 -352 14
-669 44 -102 162 -323 209 -390 12 -16 26 -38 31 -47 28 -51 213 -310 300
-423 33 -42 78 -101 100 -130 36 -47 220 -272 286 -348 l25 -30 90 33 c49 18
116 46 149 63 85 43 258 147 305 184 154 119 239 193 346 299 117 117 164 172
302 352 116 152 237 346 356 574 58 111 74 148 64 155 -14 9 -108 45 -258 99
-52 19 -108 41 -125 48 -25 12 -253 86 -555 181 -201 64 -596 155 -775 180
-109 15 -458 28 -525 19z"/>
<path d="M5805 14469 c-289 -8 -432 -33 -560 -96 -126 -62 -175 -128 -175
-236 0 -36 7 -84 15 -107 19 -53 104 -200 151 -260 69 -87 290 -306 409 -405
27 -22 53 -45 59 -51 27 -26 255 -205 372 -291 16 -12 56 -41 89 -66 33 -24
135 -96 227 -159 l166 -115 134 28 c73 16 185 45 248 65 63 19 131 40 150 46
56 17 258 97 338 134 40 19 75 34 77 34 11 0 296 156 390 213 111 68 196 126
207 142 4 5 8 6 8 2 0 -5 6 -2 14 5 7 7 46 38 86 68 121 91 308 258 421 375
109 113 209 225 209 236 0 7 -27 14 -301 73 -113 24 -216 47 -228 51 -73 23
-814 156 -1111 199 -129 19 -262 40 -295 45 -122 22 -569 61 -835 73 -31 2
-150 0 -265 -3z"/>
<path d="M12610 10490 c-75 -10 -153 -45 -192 -87 -88 -94 -69 -259 56 -498
92 -175 183 -306 371 -538 66 -82 126 -156 133 -165 11 -14 18 -14 82 7 39 12
70 27 70 32 0 6 4 8 9 5 5 -4 11 -3 13 1 1 5 25 19 51 33 168 87 428 339 559
540 65 101 118 187 118 192 0 3 18 38 40 78 42 76 46 90 30 90 -6 0 -29 9 -53
20 -62 29 -249 94 -447 156 -149 47 -281 79 -510 123 -70 14 -258 20 -330 11z"/>
<path d="M48334 15255 c-2 -5 -44 -199 -94 -430 -49 -231 -98 -460 -109 -510
-11 -49 -92 -427 -180 -840 -229 -1064 -510 -2367 -516 -2385 -7 -23 -36 -152
-40 -180 -10 -68 -49 -254 -65 -305 -5 -16 -12 -48 -15 -70 -3 -22 -17 -92
-30 -155 -14 -63 -28 -128 -31 -145 -2 -16 -9 -41 -14 -55 -5 -14 -23 -92 -40
-175 -17 -82 -51 -240 -75 -350 -24 -110 -48 -222 -54 -250 -6 -27 -31 -144
-56 -260 -25 -115 -47 -221 -49 -235 -2 -14 -6 -32 -9 -40 -6 -17 -57 -258
-57 -271 0 -5 332 -9 779 -9 l779 0 17 78 c9 42 23 104 31 137 9 33 17 68 19
78 2 10 7 28 11 40 4 12 8 31 10 42 8 68 167 806 184 860 11 34 49 214 55 263
2 18 7 36 10 41 2 5 7 24 10 42 6 40 10 59 18 79 3 8 20 83 37 165 17 83 51
240 75 350 24 110 46 214 49 230 13 74 94 434 105 470 27 84 138 312 193 395
123 187 279 340 471 464 173 110 449 212 667 247 184 29 452 36 620 15 127
-16 230 -36 275 -55 11 -4 58 -23 105 -41 47 -18 88 -38 92 -44 5 -6 8 -7 8
-1 0 6 3 6 8 0 4 -6 33 -26 66 -45 32 -19 95 -73 140 -121 65 -68 92 -106 133
-190 29 -57 55 -122 58 -144 3 -22 10 -67 16 -99 26 -147 4 -429 -51 -651 -17
-66 -71 -309 -120 -540 -50 -231 -104 -481 -120 -555 -16 -74 -59 -272 -95
-440 -36 -168 -83 -386 -105 -485 -96 -445 -120 -556 -120 -570 0 -13 94 -15
773 -13 l772 3 12 49 c13 53 16 68 157 735 53 250 101 473 106 495 10 41 219
1023 226 1061 2 11 30 146 63 300 101 472 118 594 119 835 1 422 -109 756
-337 1019 -126 145 -342 301 -526 378 -33 14 -79 34 -103 44 -23 11 -47 17
-52 14 -6 -3 -10 -2 -10 3 0 4 -53 21 -117 36 -65 15 -129 32 -143 37 -76 27
-442 61 -640 58 -210 -2 -551 -34 -635 -59 -16 -5 -109 -27 -205 -50 -96 -23
-179 -45 -185 -49 -5 -5 -50 -22 -100 -39 -134 -45 -229 -89 -435 -201 -100
-54 -274 -174 -370 -256 -93 -79 -253 -244 -306 -314 -32 -44 -60 -78 -62 -77
-1 2 52 255 118 562 67 307 155 717 196 909 93 434 244 1133 250 1160 5 20 0
20 -777 20 -512 0 -783 -3 -785 -10z"/>
<path d="M98804 15255 c-3 -9 -54 -232 -69 -305 -3 -14 -10 -38 -15 -55 -5
-16 -21 -91 -35 -165 -15 -74 -33 -162 -42 -195 -33 -132 -73 -310 -77 -339
-2 -17 -7 -38 -10 -46 -3 -8 -7 -28 -10 -45 -3 -16 -12 -57 -20 -90 -25 -107
-44 -199 -51 -244 -3 -23 -10 -54 -15 -67 -5 -13 -8 -24 -5 -24 2 0 -1 -15 -6
-32 -5 -18 -12 -46 -15 -63 -3 -16 -13 -64 -24 -106 -10 -42 -22 -96 -25 -120
-4 -24 -16 -82 -27 -129 -11 -47 -21 -93 -23 -103 -2 -9 -6 -21 -9 -26 -3 -4
-8 -23 -11 -42 -2 -19 -14 -72 -25 -119 -11 -47 -33 -148 -50 -225 -17 -76
-32 -141 -34 -143 -2 -1 -14 30 -26 70 -70 231 -213 429 -435 601 -195 151
-452 268 -705 322 -69 14 -139 30 -155 35 -79 25 -310 43 -560 44 -355 1 -483
-9 -763 -64 -137 -26 -324 -71 -337 -80 -5 -4 -50 -19 -100 -34 -49 -15 -103
-34 -120 -41 -16 -8 -61 -26 -99 -40 -38 -14 -74 -29 -80 -34 -6 -5 -34 -18
-61 -29 -147 -58 -479 -265 -647 -403 -230 -189 -451 -434 -614 -679 -125
-187 -254 -453 -336 -690 -138 -401 -205 -951 -159 -1310 70 -552 308 -969
731 -1282 154 -113 354 -220 505 -269 39 -12 75 -26 80 -30 13 -9 256 -69 281
-69 11 0 24 -4 29 -9 37 -36 617 -62 891 -42 464 36 896 166 1283 387 71 40
259 168 326 222 144 116 325 306 409 430 16 23 31 41 33 39 2 -2 -46 -228
-107 -501 -60 -274 -110 -504 -110 -512 0 -12 112 -14 775 -14 l775 0 9 23 c5
12 43 180 84 372 180 829 230 1056 252 1160 12 61 66 310 119 555 54 245 133
609 176 810 44 201 120 552 169 780 49 228 124 573 165 765 73 340 121 554
131 585 8 28 53 235 59 275 4 22 11 54 16 70 5 17 11 44 14 60 2 17 13 71 24
120 11 50 30 140 41 200 12 61 28 130 36 155 11 36 57 244 109 500 3 14 16 73
30 133 13 59 23 107 22 107 0 0 -351 1 -780 3 -512 1 -780 -1 -782 -8z m-1879
-2743 c161 -26 246 -50 372 -104 170 -72 358 -214 435 -327 18 -25 34 -48 37
-51 21 -19 72 -124 106 -220 120 -337 66 -800 -137 -1180 -140 -264 -339 -474
-615 -653 -72 -46 -155 -92 -161 -88 -1 1 -10 -5 -18 -14 -9 -8 -22 -15 -30
-15 -8 0 -14 -5 -14 -12 0 -6 -3 -9 -6 -5 -3 3 -27 -5 -52 -18 -26 -12 -83
-35 -127 -49 -44 -15 -87 -30 -95 -33 -8 -4 -17 -7 -20 -8 -162 -50 -446 -89
-650 -88 -199 1 -545 51 -587 85 -7 6 -13 7 -13 3 0 -4 -6 -3 -12 2 -7 6 -31
16 -53 23 -76 24 -198 91 -281 156 -57 43 -183 174 -211 217 -139 220 -192
467 -163 762 56 577 344 1042 832 1345 114 71 337 173 423 194 6 2 21 8 35 13
39 16 213 51 320 64 52 6 113 15 135 19 76 16 410 5 550 -18z"/>
<path d="M28326 14828 c-15 -73 -122 -572 -237 -1108 -116 -536 -235 -1090
-264 -1230 -72 -338 -354 -1641 -359 -1660 -13 -44 -36 -150 -41 -188 -3 -24
-20 -105 -36 -180 -17 -75 -46 -213 -65 -307 -19 -93 -39 -179 -44 -190 -7
-16 -157 -711 -174 -805 -2 -14 -13 -63 -24 -110 -11 -47 -37 -161 -57 -255
-20 -93 -38 -178 -41 -187 -5 -17 37 -18 776 -18 677 0 781 2 786 15 5 12 36
151 134 595 32 148 190 891 196 925 3 17 26 122 50 235 37 167 124 580 124
587 0 1 370 4 823 6 452 2 845 7 872 9 298 30 561 64 579 76 5 3 19 6 30 8 12
1 84 16 161 33 424 94 849 288 1193 546 119 89 351 315 427 415 135 176 257
393 325 573 38 103 94 296 105 367 3 19 12 73 20 120 20 121 14 475 -9 589
-40 195 -120 384 -218 516 -72 97 -238 260 -329 322 -69 48 -245 153 -255 153
-2 0 -36 15 -76 34 -159 74 -375 131 -713 190 -284 50 -508 56 -2150 56
l-1480 0 -29 -132z m2859 -923 c141 -18 265 -43 283 -57 6 -6 12 -8 12 -5 0 3
37 -10 83 -27 214 -85 355 -234 406 -430 26 -100 29 -316 6 -426 -45 -215
-152 -427 -284 -563 -98 -102 -245 -204 -366 -254 -33 -13 -73 -30 -90 -38
-42 -19 -157 -52 -245 -70 -174 -37 -233 -44 -445 -55 -169 -8 -1265 -15
-1265 -7 0 1 43 202 95 447 53 245 146 682 208 972 l112 528 685 0 c553 0 709
-3 805 -15z"/>
<path d="M55445 14948 c-2 -7 -15 -69 -29 -138 -48 -237 -55 -265 -85 -395
-28 -123 -273 -1263 -346 -1610 -19 -88 -43 -200 -54 -250 -20 -91 -305 -1414
-386 -1795 -42 -198 -146 -679 -260 -1210 -70 -323 -124 -571 -130 -590 -10
-34 -24 -98 -30 -138 -3 -24 -15 -82 -25 -130 -11 -48 -20 -90 -20 -95 0 -4
941 -6 2092 -5 l2091 3 19 95 c11 52 55 270 99 483 43 213 79 389 79 390 0 1
-588 1 -1306 -1 -1241 -2 -1305 -1 -1300 15 3 10 66 302 140 648 178 828 288
1343 391 1820 133 619 432 2010 481 2240 25 115 51 232 59 260 8 27 29 120 46
205 39 200 37 188 44 200 4 7 -260 10 -780 10 -620 0 -787 -3 -790 -12z"/>
<path d="M92870 13649 c-102 -8 -290 -31 -345 -43 -11 -2 -65 -14 -120 -25
-128 -27 -297 -71 -310 -81 -5 -4 -48 -20 -95 -35 -47 -15 -89 -31 -95 -35 -5
-5 -13 -9 -17 -10 -54 -11 -372 -171 -508 -255 -198 -123 -368 -256 -536 -419
-57 -55 -104 -99 -104 -96 0 3 45 212 100 463 55 251 100 462 100 467 0 7
-269 10 -775 10 l-775 0 -10 -22 c-8 -20 -116 -511 -324 -1483 -84 -393 -205
-940 -210 -955 -3 -8 -7 -26 -10 -40 -2 -14 -9 -43 -14 -65 -6 -22 -14 -60
-17 -84 -4 -24 -22 -111 -41 -195 -19 -83 -41 -187 -49 -231 -13 -67 -35 -167
-60 -270 -3 -11 -7 -29 -10 -40 -2 -11 -9 -40 -15 -65 -6 -25 -24 -106 -40
-180 -15 -74 -87 -407 -159 -738 -72 -332 -131 -610 -131 -618 0 -12 115 -14
784 -14 l785 0 11 58 c7 31 21 93 32 137 10 44 21 89 23 100 2 11 6 31 10 45
4 14 17 79 30 145 35 176 142 672 160 735 2 8 15 67 28 130 14 63 28 126 31
140 3 14 8 36 10 50 2 14 11 54 20 90 18 77 173 797 179 831 2 13 6 31 10 39
3 8 15 47 26 86 36 125 101 266 184 399 28 45 128 164 182 215 96 92 104 98
109 92 3 -3 6 -1 6 5 0 17 165 125 270 178 144 72 388 149 555 175 77 12 154
25 170 30 17 5 77 12 135 15 58 4 121 9 140 11 19 1 172 3 341 3 l305 1 83
378 c46 207 94 427 107 487 13 61 41 193 64 295 22 101 40 188 40 192 0 10
-103 8 -260 -3z"/>
<path d="M43530 13640 c-116 -8 -178 -15 -320 -34 -160 -21 -471 -85 -515
-105 -11 -5 -67 -24 -125 -41 -58 -18 -107 -35 -110 -40 -3 -4 -30 -16 -60
-28 -124 -46 -376 -195 -490 -291 -30 -25 -66 -55 -79 -66 -39 -33 -167 -182
-204 -238 -138 -210 -200 -427 -201 -712 -1 -359 115 -592 407 -811 163 -122
364 -229 527 -279 30 -9 62 -19 70 -22 8 -4 17 -7 20 -7 3 -1 10 -4 15 -8 6
-3 55 -18 110 -32 55 -14 109 -31 120 -36 16 -8 149 -43 320 -84 6 -1 20 -6
33 -10 12 -4 100 -25 195 -46 389 -87 493 -111 512 -120 11 -5 79 -23 150 -40
72 -16 139 -34 150 -40 11 -5 54 -19 95 -30 69 -20 298 -122 310 -138 3 -4 25
-20 50 -36 111 -73 185 -189 197 -309 11 -124 -36 -267 -115 -352 -55 -58
-138 -126 -146 -118 -3 3 -6 1 -6 -6 0 -7 -4 -9 -10 -6 -5 3 -10 1 -10 -4 0
-6 -4 -11 -10 -11 -5 0 -34 -12 -64 -26 -30 -14 -60 -27 -68 -28 -7 -2 -20 -6
-28 -9 -76 -32 -375 -60 -556 -51 -249 11 -358 27 -543 78 -107 30 -135 41
-246 98 -242 124 -369 297 -382 523 l-5 90 -765 0 -765 0 6 -80 c7 -91 11
-119 20 -155 4 -14 8 -36 10 -50 2 -14 6 -32 8 -40 3 -8 18 -55 33 -105 29
-93 87 -222 124 -274 12 -16 21 -32 21 -36 0 -12 108 -149 167 -211 118 -126
246 -223 438 -336 81 -47 236 -121 310 -147 33 -12 74 -28 91 -36 16 -8 82
-28 145 -45 62 -17 123 -35 134 -40 25 -11 137 -34 288 -59 64 -11 121 -22
125 -25 5 -3 87 -13 183 -23 247 -25 923 -25 1154 0 88 10 174 22 190 27 17 5
77 16 135 26 114 17 223 41 255 54 11 5 69 23 129 40 60 17 128 40 151 50 23
10 64 28 91 39 28 10 95 43 150 72 390 206 651 491 752 821 46 148 57 227 57
413 0 217 -18 304 -97 460 -60 119 -112 186 -221 283 -209 185 -507 343 -817
432 -41 11 -84 25 -95 30 -24 12 -195 60 -365 103 -69 18 -127 35 -128 40 -2
4 -8 4 -14 1 -5 -4 -20 -1 -31 5 -12 6 -83 24 -157 40 -74 16 -166 37 -205 46
-38 9 -137 32 -220 51 -82 19 -159 39 -170 44 -11 5 -56 19 -100 31 -128 33
-357 116 -445 160 -247 125 -323 348 -201 588 43 84 165 183 291 238 30 13 64
28 75 33 40 17 92 30 208 50 135 23 434 28 592 10 105 -12 285 -48 300 -59 5
-5 42 -19 80 -31 124 -40 280 -147 371 -252 79 -91 137 -231 151 -363 l8 -70
764 -3 764 -2 -6 67 c-17 209 -101 473 -205 648 -152 258 -411 497 -702 648
-111 58 -265 122 -350 146 -41 12 -82 26 -91 30 -23 13 -277 69 -389 85 -52 8
-102 17 -110 20 -79 30 -834 54 -1110 36z"/>
<path d="M62830 13640 c-69 -5 -161 -14 -205 -20 -44 -6 -93 -12 -110 -14
-118 -14 -505 -91 -534 -106 -9 -5 -45 -16 -81 -25 -36 -9 -94 -26 -130 -37
-36 -12 -65 -19 -66 -17 0 2 -7 -1 -15 -7 -8 -6 -32 -17 -54 -24 -22 -7 -62
-23 -90 -35 -27 -12 -77 -33 -110 -45 -123 -49 -464 -231 -565 -303 -134 -95
-226 -161 -230 -166 -3 -3 -27 -24 -55 -46 -243 -192 -546 -544 -688 -800
-254 -455 -387 -956 -387 -1456 0 -410 103 -782 293 -1059 116 -168 197 -256
388 -415 98 -83 341 -226 468 -276 42 -17 81 -34 86 -39 6 -4 64 -25 130 -45
66 -20 129 -41 140 -46 48 -20 293 -71 455 -94 321 -46 906 -46 1230 0 166 23
433 73 500 93 36 11 119 35 185 52 66 18 125 36 130 40 6 4 51 21 100 38 213
72 497 215 720 361 97 63 280 198 339 250 109 95 274 259 343 341 101 119 225
302 281 415 8 17 24 42 34 58 11 15 16 27 11 27 -4 0 -3 4 3 8 9 6 44 83 44
97 0 3 -369 5 -819 5 l-820 0 -47 -80 c-56 -94 -173 -231 -265 -311 -182 -159
-417 -277 -674 -341 -66 -16 -133 -33 -150 -38 -100 -31 -613 -38 -730 -11
-113 26 -243 61 -270 72 -16 7 -33 12 -37 11 -5 -1 -8 2 -8 6 0 4 -17 14 -37
21 -142 52 -329 211 -403 343 -48 87 -95 232 -111 346 -12 88 -9 438 4 460 7
9 472 12 2253 12 1958 0 2247 2 2260 15 8 8 14 16 14 17 -2 4 -2 2 54 163 25
72 52 155 61 185 55 200 80 580 51 796 -30 230 -100 433 -215 628 -162 275
-449 530 -788 700 -50 25 -94 46 -97 46 -3 0 -34 13 -69 29 -35 16 -94 38
-133 50 -38 12 -78 25 -89 31 -69 32 -512 116 -710 134 -118 10 -662 14 -785
6z m445 -1015 c44 -7 87 -15 95 -17 8 -3 35 -10 60 -17 130 -35 190 -55 190
-62 0 -5 3 -8 8 -7 12 3 114 -47 177 -87 102 -65 176 -136 235 -226 128 -195
161 -437 99 -741 l-12 -58 -1489 0 c-1415 0 -1490 1 -1483 18 3 9 15 43 26 75
18 55 84 206 112 259 23 43 111 183 125 197 8 8 31 37 52 65 126 166 408 366
652 461 51 20 102 40 113 45 53 22 229 67 365 91 160 30 510 32 675 4z"/>
<path d="M69900 13648 c-3 -3 -68 -8 -145 -12 -77 -4 -171 -11 -210 -17 -38
-5 -83 -11 -100 -13 -166 -21 -504 -86 -550 -107 -11 -4 -67 -20 -125 -34 -57
-15 -109 -29 -115 -33 -5 -4 -12 -7 -15 -7 -15 -2 -207 -69 -215 -76 -6 -4
-37 -17 -70 -29 -90 -33 -409 -191 -500 -248 -90 -56 -178 -113 -214 -139
-112 -81 -160 -119 -251 -197 -372 -322 -642 -697 -807 -1121 -83 -210 -149
-478 -177 -715 -18 -147 -14 -479 8 -612 77 -482 307 -872 696 -1181 140 -111
425 -280 529 -312 13 -4 40 -14 60 -23 20 -9 38 -16 41 -17 3 -1 19 -7 35 -14
17 -7 77 -26 135 -42 58 -17 114 -34 125 -39 45 -19 300 -70 475 -95 336 -49
940 -46 1270 5 215 34 428 75 465 90 11 4 85 25 165 45 80 21 150 41 155 45 6
4 62 24 125 45 63 20 120 41 126 46 6 5 35 18 65 28 30 10 91 37 136 60 45 22
84 41 87 41 9 0 207 110 266 148 133 85 198 129 241 162 25 19 63 48 85 65
170 128 416 374 549 550 40 52 177 259 206 310 233 416 359 895 359 1367 0
485 -139 885 -428 1231 -161 192 -371 359 -602 478 -58 30 -108 59 -112 64 -4
6 -8 7 -8 2 0 -4 -10 -1 -22 7 -33 21 -211 91 -298 117 -41 12 -79 25 -85 29
-19 15 -353 86 -500 107 -165 23 -304 33 -555 39 -162 4 -297 4 -300 2z m367
-1132 c164 -34 223 -52 319 -96 45 -21 91 -41 103 -45 11 -3 21 -11 21 -16 0
-6 4 -8 9 -5 5 4 11 3 13 -2 1 -4 21 -19 43 -32 90 -54 207 -167 263 -254 118
-182 165 -357 164 -611 -2 -414 -167 -872 -421 -1165 -244 -283 -593 -496
-966 -590 -235 -59 -283 -65 -535 -65 -219 1 -244 2 -360 28 -132 29 -219 54
-234 67 -5 5 -15 6 -22 3 -8 -3 -14 -1 -14 4 0 5 -17 15 -37 22 -35 12 -191
97 -203 111 -3 3 -23 18 -45 34 -72 51 -184 175 -230 253 -24 42 -42 80 -39
85 3 4 0 8 -6 8 -6 0 -9 4 -6 9 4 5 2 11 -3 13 -14 5 -58 163 -71 254 -14 105
-11 318 6 429 44 274 148 562 278 763 91 141 237 301 366 400 30 23 60 46 66
51 29 24 159 103 238 145 184 98 375 163 596 202 154 27 215 31 405 28 145 -2
204 -8 302 -28z"/>
<path d="M77780 13638 c-411 -32 -827 -147 -1150 -316 -260 -136 -427 -254
-629 -447 -80 -77 -214 -234 -240 -283 -7 -13 -15 -22 -17 -19 -3 2 45 226
106 497 60 272 110 500 110 507 0 11 -140 13 -775 13 l-775 0 -10 -22 c-5 -13
-79 -349 -165 -748 -85 -399 -195 -912 -245 -1140 -50 -228 -93 -428 -96 -445
-3 -16 -19 -88 -35 -160 -16 -71 -32 -143 -35 -160 -10 -59 -75 -361 -85 -400
-6 -22 -12 -47 -14 -55 -2 -8 -10 -42 -18 -75 -8 -33 -32 -139 -52 -235 -20
-96 -43 -202 -50 -235 -8 -33 -21 -96 -29 -140 -14 -78 -20 -108 -31 -150 -2
-11 -27 -123 -55 -250 -28 -126 -68 -311 -90 -410 -21 -99 -100 -463 -174
-810 -75 -346 -196 -913 -271 -1260 -74 -346 -138 -642 -141 -657 l-6 -28 781
0 c734 0 780 1 785 18 3 9 14 60 25 112 11 52 29 138 41 190 11 52 41 187 65
300 24 113 75 351 114 530 38 179 91 422 116 540 25 118 54 253 65 300 11 47
58 263 105 480 46 217 109 510 140 650 30 140 55 263 55 273 0 42 19 10 45
-75 32 -110 67 -183 143 -297 49 -76 190 -229 265 -289 123 -99 301 -202 427
-246 41 -15 89 -33 106 -41 18 -8 81 -26 140 -40 60 -14 123 -29 139 -35 17
-5 86 -17 155 -27 187 -26 750 -24 940 5 150 22 404 74 472 96 23 8 84 26 133
41 273 80 610 241 855 409 115 78 297 226 405 328 203 193 448 504 561 715 21
37 45 82 55 100 84 150 288 673 262 673 -3 0 0 6 6 13 6 8 8 17 4 20 -3 4 -1
13 6 21 6 8 11 18 10 22 -2 5 2 27 9 49 6 22 13 54 16 70 2 17 12 68 20 114 9
46 18 122 21 170 4 47 8 104 11 126 5 48 5 316 0 365 -3 19 -7 71 -11 115 -3
44 -13 112 -21 150 -8 39 -17 84 -19 100 -3 17 -10 39 -15 50 -4 11 -20 58
-35 105 -47 153 -179 388 -292 522 -261 309 -664 546 -1073 633 -69 14 -141
30 -160 35 -158 42 -608 61 -900 38z m-119 -1121 c123 -18 281 -54 324 -72 17
-8 66 -29 110 -48 113 -49 227 -128 320 -221 188 -190 275 -428 275 -751 0
-133 -26 -336 -54 -427 -8 -27 -12 -48 -9 -48 3 0 0 -7 -7 -15 -7 -8 -10 -15
-7 -15 7 0 -14 -62 -37 -113 -79 -173 -109 -234 -135 -273 -17 -25 -31 -47
-31 -49 0 -5 -37 -58 -88 -126 -111 -147 -360 -357 -522 -439 -25 -12 -47 -25
-50 -29 -13 -16 -179 -88 -295 -128 -189 -64 -330 -91 -607 -113 -233 -18
-561 26 -758 103 -139 54 -163 66 -306 166 -52 36 -224 206 -224 222 0 5 -15
30 -34 56 -132 185 -187 549 -126 833 5 25 12 56 14 70 3 14 13 52 22 85 9 33
17 67 19 75 15 75 126 310 199 424 74 114 118 167 242 291 179 179 441 346
669 425 50 18 99 36 110 41 42 19 236 59 360 74 71 9 132 18 135 21 10 11 389
-4 491 -19z"/>
<path d="M84010 13643 c-79 -4 -343 -34 -352 -39 -3 -2 -58 -14 -120 -25 -123
-22 -301 -64 -333 -79 -11 -5 -58 -21 -105 -35 -73 -22 -186 -66 -280 -107
-14 -6 -28 -11 -32 -10 -5 1 -8 -3 -8 -8 0 -6 -5 -10 -12 -10 -14 0 -193 -90
-273 -138 -87 -52 -248 -159 -273 -182 -11 -11 -34 -27 -50 -37 -90 -55 -392
-351 -518 -507 -66 -82 -194 -261 -194 -272 0 -1 -22 -38 -48 -81 -186 -300
-339 -746 -402 -1173 -29 -191 -36 -560 -15 -734 37 -299 115 -535 250 -758
133 -220 263 -356 515 -541 155 -113 486 -251 729 -304 279 -61 366 -68 761
-67 276 0 511 18 595 44 17 5 95 23 175 41 80 17 150 34 155 37 6 4 66 25 135
48 351 118 706 330 961 575 115 110 279 304 279 329 0 6 5 10 11 10 6 0 8 -8
5 -17 -3 -10 -24 -99 -47 -198 -22 -99 -52 -225 -65 -280 -13 -55 -26 -113
-28 -130 -4 -29 -10 -56 -21 -100 -12 -49 -64 -291 -65 -298 0 -4 350 -6 777
-5 l778 3 17 75 c10 41 19 89 21 105 2 17 6 35 9 41 4 5 9 31 12 58 3 26 8 51
11 56 6 10 54 238 62 295 3 22 9 48 14 58 6 9 8 17 5 17 -3 0 -1 12 4 28 8 23
67 291 210 952 16 74 65 302 109 505 43 204 82 384 85 400 3 17 17 82 31 145
14 63 66 300 115 525 49 226 152 702 229 1060 78 357 141 655 141 662 0 11
-146 13 -770 13 -723 0 -770 -1 -778 -17 -5 -10 -58 -240 -118 -510 -59 -271
-111 -489 -114 -485 -4 4 -14 34 -24 67 -39 129 -149 318 -247 422 -320 340
-771 528 -1377 572 -139 10 -393 12 -532 4z m763 -1112 c23 -5 84 -15 135 -21
291 -37 547 -161 742 -360 52 -53 104 -114 115 -136 11 -21 30 -55 42 -74 69
-108 114 -303 114 -490 1 -358 -122 -731 -336 -1025 -67 -92 -219 -252 -290
-307 -16 -12 -39 -31 -50 -41 -57 -52 -378 -245 -397 -239 -5 1 -8 -2 -8 -8 0
-6 -3 -9 -7 -8 -5 1 -24 -5 -43 -14 -19 -8 -66 -25 -105 -37 -38 -12 -77 -25
-85 -28 -28 -11 -35 -13 -137 -37 -198 -47 -523 -72 -693 -52 -258 29 -358 50
-500 105 -171 66 -307 156 -415 275 -187 204 -264 429 -252 731 12 284 84 565
205 793 219 417 562 703 1037 866 6 2 13 3 16 2 3 0 12 4 20 11 21 17 227 60
374 78 71 9 131 18 134 21 8 8 342 4 384 -5z"/>
<path d="M34685 13578 c-5 -13 -285 -1301 -331 -1523 -27 -128 -59 -267 -74
-325 -5 -19 -12 -51 -15 -70 -3 -19 -25 -127 -50 -240 -25 -113 -58 -268 -75
-345 -17 -77 -32 -149 -35 -160 -3 -11 -7 -29 -10 -40 -2 -11 -11 -49 -20 -85
-24 -100 -75 -406 -81 -485 -6 -101 -6 -331 1 -384 11 -77 55 -304 67 -341 23
-75 112 -256 162 -333 94 -143 234 -281 406 -398 75 -51 251 -140 325 -164 28
-8 64 -22 81 -30 18 -8 81 -26 140 -40 60 -14 123 -29 139 -35 95 -30 285 -44
600 -44 313 0 524 15 620 44 17 5 84 21 150 35 66 13 181 45 255 69 135 43
379 140 390 154 3 4 49 29 104 57 249 125 510 333 701 558 49 58 91 105 92
103 2 -1 -44 -215 -102 -474 -58 -259 -105 -476 -105 -482 0 -7 260 -10 784
-10 739 0 785 1 790 18 5 19 268 1244 396 1847 44 209 84 398 89 420 9 38 220
1024 297 1385 19 91 41 185 49 210 12 40 84 375 91 425 1 11 3 20 4 20 1 0 3
7 5 15 4 21 17 81 21 105 24 131 44 227 69 325 34 133 50 222 41 226 -25 9
-1556 -1 -1558 -11 -3 -19 -57 -260 -88 -395 -17 -74 -33 -146 -35 -160 -4
-24 -10 -54 -19 -95 -26 -113 -77 -353 -82 -383 -3 -20 -15 -75 -26 -122 -11
-47 -21 -93 -23 -103 -2 -9 -6 -21 -9 -25 -2 -4 -7 -30 -11 -57 -3 -28 -19
-108 -35 -180 -17 -71 -84 -375 -150 -674 -66 -299 -131 -585 -146 -635 -63
-221 -190 -454 -337 -620 -160 -180 -444 -366 -669 -437 -40 -13 -75 -26 -78
-29 -3 -3 -12 -6 -20 -7 -8 -1 -51 -11 -94 -22 -202 -51 -537 -70 -746 -43
-115 15 -279 49 -294 60 -6 5 -40 19 -76 31 -81 29 -157 71 -235 130 -63 48
-165 157 -192 207 -33 60 -75 149 -78 164 -2 8 -11 44 -20 80 -34 138 -30 389
10 580 8 37 16 77 19 90 2 14 18 86 35 160 16 74 43 198 60 275 16 77 64 298
105 491 42 193 79 373 82 400 3 27 9 53 13 59 5 5 9 17 9 25 1 8 26 128 57
265 30 138 89 408 130 600 42 193 78 358 81 368 5 16 -36 17 -771 17 -611 0
-777 -3 -780 -12z"/>
</g>
</svg>
