<svg id="Layer_1" data-name="Layer 1" xmlns="http://www.w3.org/2000/svg" viewBox="0 0 140 40"><defs><style>.cls-1,.cls-2{stroke:#000;}.cls-1,.cls-2,.cls-3{stroke-miterlimit:10;}.cls-2{fill:none;}.cls-3{fill:#f1e921;stroke:#f1e921;}.cls-4{fill:#231f20;}.cls-5{fill:#0e130f;}.cls-6{font-size:17px;font-family:Poppins-SemiBoldItalic, Poppins;font-weight:600;font-style:italic;}</style></defs><title>logo svg for web</title><path class="cls-1" d="M8,30.31l2.93,3.46S3.68,30.84,2.41,23.19l.07-3.46s.4-5.92,8-10.37L11.13,5s4.45,1.27,5.18,2.26c0,0,5,.74,5.06,1.27a2.81,2.81,0,0,1,2,2s4,3.06,4.39,3.2c0,0,2.2,1.26-.46,2.92s-.27,0-.27,0,.8.67-1.33,2.93c0,0-1.33,2.13-1.73,2.13,0,0-3.06-2.4-5.32-1.33a4,4,0,0,0-.53,5.72s8.25,3.46,7.51,6.51v2.86s-2.19-3.32-7.71-3.92l-6.65-.27S8,30.71,8,30.31Z"/><path class="cls-1" d="M24.83,33.7s.6-3.06-10.25-3.46l-.73-1.93s-1.53.93-1.59,1.53c0,0-5.46-1.06-5.92-1.93,0,0-2.73-4.72-1.53-8.78l.93.2s1.59-.4,1.79-1.59l-2-.93,2.79-3.66.6,1.19a1.61,1.61,0,0,0,2-.93l-.6-1.79L11.66,11l1.39.87-.59-4.46,2.66,1.2,1.19.2L17,10s.4-.07,1-.86c0,0,3.53.86,3.53,1.26a10,10,0,0,0,5.12,4.19l-1.2.47s1.66,1.66-.66,3.06c0,0-.07,1.46-1.13,1.72a5.55,5.55,0,0,0-3.13-1.52s-3.79-.14-4.19.33c0,0-1.6-3.19-1.26-3.79s-1.33,3.19.2,5.12l1.39.06A10.83,10.83,0,0,0,15.32,23v1.6s.73,2.86,2.32,2.79c0,0-.46,1.4.34,1.4,0,0,.2.53.86-.73C18.84,28.05,25.29,30.51,24.83,33.7Z"/><path class="cls-2" d="M7.92,30.27l2.93,3.46S3.6,30.81,2.34,23.16L2.4,19.7s.4-5.92,8-10.38L11.05,5s4.45,1.26,5.19,2.26c0,0,5,.73,5.05,1.26a2.86,2.86,0,0,1,2,2s4,3.06,4.39,3.19c0,0,2.19,1.27-.47,2.93s-.27,0-.27,0,.8.66-1.33,2.93c0,0-1.33,2.12-1.72,2.12,0,0-3.06-2.39-5.33-1.33A4,4,0,0,0,18,26.08s8.25,3.46,7.52,6.52v2.86s-2.2-3.32-7.72-3.92l-6.65-.27S7.92,30.67,7.92,30.27Z"/><path class="cls-3" d="M24.75,33.67s.6-3.06-10.24-3.46l-.73-1.93s-1.53.93-1.6,1.53c0,0-5.45-1.07-5.92-1.93,0,0-2.73-4.72-1.53-8.78l.93.2s1.6-.4,1.8-1.6l-2-.93,2.8-3.66.59,1.2a1.61,1.61,0,0,0,2-.93l-.6-1.8,1.33-.66,1.4.86-.6-4.45L15,8.52l1.2.2L17,10s.4-.07,1-.87c0,0,3.52.87,3.52,1.27a10,10,0,0,0,5.12,4.19l-1.2.46s1.67,1.67-.66,3.06c0,0-.07,1.47-1.13,1.73a5.55,5.55,0,0,0-3.13-1.53s-3.79-.13-4.19.33c0,0-1.59-3.19-1.26-3.79s-1.33,3.2.2,5.12l1.4.07A10.93,10.93,0,0,0,15.24,23v1.59s.73,2.86,2.33,2.8c0,0-.47,1.39.33,1.39,0,0,.2.54.86-.73C18.76,28,25.22,30.47,24.75,33.67Z"/><path class="cls-4" d="M17.69,11.71s2.46,1.6,2.92,1.87a2.67,2.67,0,0,1-.39-2.07Z"/><circle class="cls-5" cx="15.44" cy="12.35" r="0.4"/><path class="cls-5" d="M9.88,18.77s.7-.2,1.2-1.5C11.08,17.27,7.59,15.48,9.88,18.77Z"/><path class="cls-5" d="M11.66,27.45s.42-.12.72-.9C12.38,26.55,10.3,25.48,11.66,27.45Z"/><path class="cls-5" d="M6.91,24.27a2.75,2.75,0,0,0,1.68-1.22S3.67,21.58,6.91,24.27Z"/><text class="cls-6" transform="translate(26.02 30.21)">PushLeopard</text></svg>